<svg class="rich-terminal" viewBox="0 0 994 635.5999999999999" xmlns="http://www.w3.org/2000/svg">
    <!-- Generated with Rich https://www.textualize.io -->
    <style>

    @font-face {
        font-family: "Fira Code";
        src: local("FiraCode-Regular"),
                url("https://cdnjs.cloudflare.com/ajax/libs/firacode/6.2.0/woff2/FiraCode-Regular.woff2") format("woff2"),
                url("https://cdnjs.cloudflare.com/ajax/libs/firacode/6.2.0/woff/FiraCode-Regular.woff") format("woff");
        font-style: normal;
        font-weight: 400;
    }
    @font-face {
        font-family: "Fira Code";
        src: local("FiraCode-Bold"),
                url("https://cdnjs.cloudflare.com/ajax/libs/firacode/6.2.0/woff2/FiraCode-Bold.woff2") format("woff2"),
                url("https://cdnjs.cloudflare.com/ajax/libs/firacode/6.2.0/woff/FiraCode-Bold.woff") format("woff");
        font-style: bold;
        font-weight: 700;
    }

    .terminal-matrix {
        font-family: Fira Code, monospace;
        font-size: 20px;
        line-height: 24.4px;
        font-variant-east-asian: full-width;
    }

    .terminal-title {
        font-size: 18px;
        font-weight: bold;
        font-family: arial;
    }

    .terminal-r1 { fill: #c5c8c6 }
.terminal-r2 { fill: #e0e0e0 }
.terminal-r3 { fill: #0178d4 }
.terminal-r4 { fill: #ddedf9 }
.terminal-r5 { fill: #e0e0e0;font-weight: bold }
.terminal-r6 { fill: #004578 }
.terminal-r7 { fill: #ffa62b;font-weight: bold }
.terminal-r8 { fill: #495259 }
    </style>

    <defs>
    <clipPath id="terminal-clip-terminal">
      <rect x="0" y="0" width="975.0" height="584.5999999999999" />
    </clipPath>
    <clipPath id="terminal-line-0">
    <rect x="0" y="1.5" width="976" height="24.65"/>
            </clipPath>
<clipPath id="terminal-line-1">
    <rect x="0" y="25.9" width="976" height="24.65"/>
            </clipPath>
<clipPath id="terminal-line-2">
    <rect x="0" y="50.3" width="976" height="24.65"/>
            </clipPath>
<clipPath id="terminal-line-3">
    <rect x="0" y="74.7" width="976" height="24.65"/>
            </clipPath>
<clipPath id="terminal-line-4">
    <rect x="0" y="99.1" width="976" height="24.65"/>
            </clipPath>
<clipPath id="terminal-line-5">
    <rect x="0" y="123.5" width="976" height="24.65"/>
            </clipPath>
<clipPath id="terminal-line-6">
    <rect x="0" y="147.9" width="976" height="24.65"/>
            </clipPath>
<clipPath id="terminal-line-7">
    <rect x="0" y="172.3" width="976" height="24.65"/>
            </clipPath>
<clipPath id="terminal-line-8">
    <rect x="0" y="196.7" width="976" height="24.65"/>
            </clipPath>
<clipPath id="terminal-line-9">
    <rect x="0" y="221.1" width="976" height="24.65"/>
            </clipPath>
<clipPath id="terminal-line-10">
    <rect x="0" y="245.5" width="976" height="24.65"/>
            </clipPath>
<clipPath id="terminal-line-11">
    <rect x="0" y="269.9" width="976" height="24.65"/>
            </clipPath>
<clipPath id="terminal-line-12">
    <rect x="0" y="294.3" width="976" height="24.65"/>
            </clipPath>
<clipPath id="terminal-line-13">
    <rect x="0" y="318.7" width="976" height="24.65"/>
            </clipPath>
<clipPath id="terminal-line-14">
    <rect x="0" y="343.1" width="976" height="24.65"/>
            </clipPath>
<clipPath id="terminal-line-15">
    <rect x="0" y="367.5" width="976" height="24.65"/>
            </clipPath>
<clipPath id="terminal-line-16">
    <rect x="0" y="391.9" width="976" height="24.65"/>
            </clipPath>
<clipPath id="terminal-line-17">
    <rect x="0" y="416.3" width="976" height="24.65"/>
            </clipPath>
<clipPath id="terminal-line-18">
    <rect x="0" y="440.7" width="976" height="24.65"/>
            </clipPath>
<clipPath id="terminal-line-19">
    <rect x="0" y="465.1" width="976" height="24.65"/>
            </clipPath>
<clipPath id="terminal-line-20">
    <rect x="0" y="489.5" width="976" height="24.65"/>
            </clipPath>
<clipPath id="terminal-line-21">
    <rect x="0" y="513.9" width="976" height="24.65"/>
            </clipPath>
<clipPath id="terminal-line-22">
    <rect x="0" y="538.3" width="976" height="24.65"/>
            </clipPath>
    </defs>

    <rect fill="#292929" stroke="rgba(255,255,255,0.35)" stroke-width="1" x="1" y="1" width="992" height="633.6" rx="8"/><text class="terminal-title" fill="#c5c8c6" text-anchor="middle" x="496" y="27">MTGA&#160;Mythic&#160;TUI&#160;Session&#160;Tracker</text>
            <g transform="translate(26,22)">
            <circle cx="0" cy="0" r="7" fill="#ff5f57"/>
            <circle cx="22" cy="0" r="7" fill="#febc2e"/>
            <circle cx="44" cy="0" r="7" fill="#28c840"/>
            </g>
        
    <g transform="translate(9, 41)" clip-path="url(#terminal-clip-terminal)">
    <rect fill="#242f38" x="0" y="1.5" width="12.2" height="24.65" shape-rendering="crispEdges"/><rect fill="#242f38" x="12.2" y="1.5" width="12.2" height="24.65" shape-rendering="crispEdges"/><rect fill="#242f38" x="24.4" y="1.5" width="61" height="24.65" shape-rendering="crispEdges"/><rect fill="#242f38" x="85.4" y="1.5" width="12.2" height="24.65" shape-rendering="crispEdges"/><rect fill="#242f38" x="97.6" y="1.5" width="183" height="24.65" shape-rendering="crispEdges"/><rect fill="#242f38" x="280.6" y="1.5" width="378.2" height="24.65" shape-rendering="crispEdges"/><rect fill="#242f38" x="658.8" y="1.5" width="195.2" height="24.65" shape-rendering="crispEdges"/><rect fill="#242f38" x="854" y="1.5" width="12.2" height="24.65" shape-rendering="crispEdges"/><rect fill="#242f38" x="866.2" y="1.5" width="0" height="24.65" shape-rendering="crispEdges"/><rect fill="#242f38" x="866.2" y="1.5" width="109.8" height="24.65" shape-rendering="crispEdges"/><rect fill="#121212" x="0" y="25.9" width="475.8" height="24.65" shape-rendering="crispEdges"/><rect fill="#121212" x="475.8" y="25.9" width="12.2" height="24.65" shape-rendering="crispEdges"/><rect fill="#121212" x="488" y="25.9" width="488" height="24.65" shape-rendering="crispEdges"/><rect fill="#121212" x="0" y="50.3" width="12.2" height="24.65" shape-rendering="crispEdges"/><rect fill="#0178d4" x="12.2" y="50.3" width="12.2" height="24.65" shape-rendering="crispEdges"/><rect fill="#0178d4" x="24.4" y="50.3" width="146.4" height="24.65" shape-rendering="crispEdges"/><rect fill="#0178d4" x="170.8" y="50.3" width="12.2" height="24.65" shape-rendering="crispEdges"/><rect fill="#121212" x="183" y="50.3" width="280.6" height="24.65" shape-rendering="crispEdges"/><rect fill="#121212" x="463.6" y="50.3" width="12.2" height="24.65" shape-rendering="crispEdges"/><rect fill="#121212" x="475.8" y="50.3" width="12.2" height="24.65" shape-rendering="crispEdges"/><rect fill="#121212" x="488" y="50.3" width="12.2" height="24.65" shape-rendering="crispEdges"/><rect fill="#0178d4" x="500.2" y="50.3" width="12.2" height="24.65" shape-rendering="crispEdges"/><rect fill="#0178d4" x="512.4" y="50.3" width="158.6" height="24.65" shape-rendering="crispEdges"/><rect fill="#0178d4" x="671" y="50.3" width="12.2" height="24.65" shape-rendering="crispEdges"/><rect fill="#121212" x="683.2" y="50.3" width="280.6" height="24.65" shape-rendering="crispEdges"/><rect fill="#121212" x="963.8" y="50.3" width="12.2" height="24.65" shape-rendering="crispEdges"/><rect fill="#121212" x="0" y="74.7" width="12.2" height="24.65" shape-rendering="crispEdges"/><rect fill="#121212" x="12.2" y="74.7" width="451.4" height="24.65" shape-rendering="crispEdges"/><rect fill="#121212" x="463.6" y="74.7" width="12.2" height="24.65" shape-rendering="crispEdges"/><rect fill="#121212" x="475.8" y="74.7" width="12.2" height="24.65" shape-rendering="crispEdges"/><rect fill="#121212" x="488" y="74.7" width="12.2" height="24.65" shape-rendering="crispEdges"/><rect fill="#121212" x="500.2" y="74.7" width="463.6" height="24.65" shape-rendering="crispEdges"/><rect fill="#121212" x="963.8" y="74.7" width="12.2" height="24.65" shape-rendering="crispEdges"/><rect fill="#121212" x="0" y="99.1" width="12.2" height="24.65" shape-rendering="crispEdges"/><rect fill="#121212" x="12.2" y="99.1" width="85.4" height="24.65" shape-rendering="crispEdges"/><rect fill="#121212" x="97.6" y="99.1" width="366" height="24.65" shape-rendering="crispEdges"/><rect fill="#121212" x="463.6" y="99.1" width="12.2" height="24.65" shape-rendering="crispEdges"/><rect fill="#121212" x="475.8" y="99.1" width="12.2" height="24.65" shape-rendering="crispEdges"/><rect fill="#121212" x="488" y="99.1" width="12.2" height="24.65" shape-rendering="crispEdges"/><rect fill="#121212" x="500.2" y="99.1" width="183" height="24.65" shape-rendering="crispEdges"/><rect fill="#121212" x="683.2" y="99.1" width="280.6" height="24.65" shape-rendering="crispEdges"/><rect fill="#121212" x="963.8" y="99.1" width="12.2" height="24.65" shape-rendering="crispEdges"/><rect fill="#121212" x="0" y="123.5" width="12.2" height="24.65" shape-rendering="crispEdges"/><rect fill="#121212" x="12.2" y="123.5" width="280.6" height="24.65" shape-rendering="crispEdges"/><rect fill="#121212" x="292.8" y="123.5" width="170.8" height="24.65" shape-rendering="crispEdges"/><rect fill="#121212" x="463.6" y="123.5" width="12.2" height="24.65" shape-rendering="crispEdges"/><rect fill="#121212" x="475.8" y="123.5" width="12.2" height="24.65" shape-rendering="crispEdges"/><rect fill="#121212" x="488" y="123.5" width="12.2" height="24.65" shape-rendering="crispEdges"/><rect fill="#121212" x="500.2" y="123.5" width="170.8" height="24.65" shape-rendering="crispEdges"/><rect fill="#121212" x="671" y="123.5" width="292.8" height="24.65" shape-rendering="crispEdges"/><rect fill="#121212" x="963.8" y="123.5" width="12.2" height="24.65" shape-rendering="crispEdges"/><rect fill="#121212" x="0" y="147.9" width="12.2" height="24.65" shape-rendering="crispEdges"/><rect fill="#121212" x="12.2" y="147.9" width="268.4" height="24.65" shape-rendering="crispEdges"/><rect fill="#121212" x="280.6" y="147.9" width="183" height="24.65" shape-rendering="crispEdges"/><rect fill="#121212" x="463.6" y="147.9" width="12.2" height="24.65" shape-rendering="crispEdges"/><rect fill="#121212" x="475.8" y="147.9" width="12.2" height="24.65" shape-rendering="crispEdges"/><rect fill="#121212" x="488" y="147.9" width="12.2" height="24.65" shape-rendering="crispEdges"/><rect fill="#121212" x="500.2" y="147.9" width="183" height="24.65" shape-rendering="crispEdges"/><rect fill="#121212" x="683.2" y="147.9" width="280.6" height="24.65" shape-rendering="crispEdges"/><rect fill="#121212" x="963.8" y="147.9" width="12.2" height="24.65" shape-rendering="crispEdges"/><rect fill="#121212" x="0" y="172.3" width="12.2" height="24.65" shape-rendering="crispEdges"/><rect fill="#121212" x="12.2" y="172.3" width="0" height="24.65" shape-rendering="crispEdges"/><rect fill="#121212" x="12.2" y="172.3" width="451.4" height="24.65" shape-rendering="crispEdges"/><rect fill="#121212" x="463.6" y="172.3" width="12.2" height="24.65" shape-rendering="crispEdges"/><rect fill="#121212" x="475.8" y="172.3" width="12.2" height="24.65" shape-rendering="crispEdges"/><rect fill="#121212" x="488" y="172.3" width="12.2" height="24.65" shape-rendering="crispEdges"/><rect fill="#121212" x="500.2" y="172.3" width="183" height="24.65" shape-rendering="crispEdges"/><rect fill="#121212" x="683.2" y="172.3" width="280.6" height="24.65" shape-rendering="crispEdges"/><rect fill="#121212" x="963.8" y="172.3" width="12.2" height="24.65" shape-rendering="crispEdges"/><rect fill="#121212" x="0" y="196.7" width="12.2" height="24.65" shape-rendering="crispEdges"/><rect fill="#121212" x="12.2" y="196.7" width="329.4" height="24.65" shape-rendering="crispEdges"/><rect fill="#121212" x="341.6" y="196.7" width="122" height="24.65" shape-rendering="crispEdges"/><rect fill="#121212" x="463.6" y="196.7" width="12.2" height="24.65" shape-rendering="crispEdges"/><rect fill="#121212" x="475.8" y="196.7" width="12.2" height="24.65" shape-rendering="crispEdges"/><rect fill="#121212" x="488" y="196.7" width="12.2" height="24.65" shape-rendering="crispEdges"/><rect fill="#121212" x="500.2" y="196.7" width="0" height="24.65" shape-rendering="crispEdges"/><rect fill="#121212" x="500.2" y="196.7" width="463.6" height="24.65" shape-rendering="crispEdges"/><rect fill="#121212" x="963.8" y="196.7" width="12.2" height="24.65" shape-rendering="crispEdges"/><rect fill="#121212" x="0" y="221.1" width="12.2" height="24.65" shape-rendering="crispEdges"/><rect fill="#0178d4" x="12.2" y="221.1" width="12.2" height="24.65" shape-rendering="crispEdges"/><rect fill="#0178d4" x="24.4" y="221.1" width="158.6" height="24.65" shape-rendering="crispEdges"/><rect fill="#0178d4" x="183" y="221.1" width="12.2" height="24.65" shape-rendering="crispEdges"/><rect fill="#121212" x="195.2" y="221.1" width="268.4" height="24.65" shape-rendering="crispEdges"/><rect fill="#121212" x="463.6" y="221.1" width="12.2" height="24.65" shape-rendering="crispEdges"/><rect fill="#121212" x="475.8" y="221.1" width="12.2" height="24.65" shape-rendering="crispEdges"/><rect fill="#121212" x="488" y="221.1" width="12.2" height="24.65" shape-rendering="crispEdges"/><rect fill="#121212" x="500.2" y="221.1" width="439.2" height="24.65" shape-rendering="crispEdges"/><rect fill="#121212" x="939.4" y="221.1" width="24.4" height="24.65" shape-rendering="crispEdges"/><rect fill="#121212" x="963.8" y="221.1" width="12.2" height="24.65" shape-rendering="crispEdges"/><rect fill="#121212" x="0" y="245.5" width="12.2" height="24.65" shape-rendering="crispEdges"/><rect fill="#121212" x="12.2" y="245.5" width="451.4" height="24.65" shape-rendering="crispEdges"/><rect fill="#121212" x="463.6" y="245.5" width="12.2" height="24.65" shape-rendering="crispEdges"/><rect fill="#121212" x="475.8" y="245.5" width="12.2" height="24.65" shape-rendering="crispEdges"/><rect fill="#121212" x="488" y="245.5" width="12.2" height="24.65" shape-rendering="crispEdges"/><rect fill="#121212" x="500.2" y="245.5" width="427" height="24.65" shape-rendering="crispEdges"/><rect fill="#121212" x="927.2" y="245.5" width="36.6" height="24.65" shape-rendering="crispEdges"/><rect fill="#121212" x="963.8" y="245.5" width="12.2" height="24.65" shape-rendering="crispEdges"/><rect fill="#121212" x="0" y="269.9" width="12.2" height="24.65" shape-rendering="crispEdges"/><rect fill="#121212" x="12.2" y="269.9" width="402.6" height="24.65" shape-rendering="crispEdges"/><rect fill="#121212" x="414.8" y="269.9" width="48.8" height="24.65" shape-rendering="crispEdges"/><rect fill="#121212" x="463.6" y="269.9" width="12.2" height="24.65" shape-rendering="crispEdges"/><rect fill="#121212" x="475.8" y="269.9" width="12.2" height="24.65" shape-rendering="crispEdges"/><rect fill="#121212" x="488" y="269.9" width="12.2" height="24.65" shape-rendering="crispEdges"/><rect fill="#0178d4" x="500.2" y="269.9" width="12.2" height="24.65" shape-rendering="crispEdges"/><rect fill="#0178d4" x="512.4" y="269.9" width="146.4" height="24.65" shape-rendering="crispEdges"/><rect fill="#0178d4" x="658.8" y="269.9" width="12.2" height="24.65" shape-rendering="crispEdges"/><rect fill="#121212" x="671" y="269.9" width="292.8" height="24.65" shape-rendering="crispEdges"/><rect fill="#121212" x="963.8" y="269.9" width="12.2" height="24.65" shape-rendering="crispEdges"/><rect fill="#121212" x="0" y="294.3" width="12.2" height="24.65" shape-rendering="crispEdges"/><rect fill="#121212" x="12.2" y="294.3" width="402.6" height="24.65" shape-rendering="crispEdges"/><rect fill="#121212" x="414.8" y="294.3" width="48.8" height="24.65" shape-rendering="crispEdges"/><rect fill="#121212" x="463.6" y="294.3" width="12.2" height="24.65" shape-rendering="crispEdges"/><rect fill="#121212" x="475.8" y="294.3" width="12.2" height="24.65" shape-rendering="crispEdges"/><rect fill="#121212" x="488" y="294.3" width="12.2" height="24.65" shape-rendering="crispEdges"/><rect fill="#121212" x="500.2" y="294.3" width="463.6" height="24.65" shape-rendering="crispEdges"/><rect fill="#121212" x="963.8" y="294.3" width="12.2" height="24.65" shape-rendering="crispEdges"/><rect fill="#121212" x="0" y="318.7" width="12.2" height="24.65" shape-rendering="crispEdges"/><rect fill="#121212" x="12.2" y="318.7" width="402.6" height="24.65" shape-rendering="crispEdges"/><rect fill="#121212" x="414.8" y="318.7" width="48.8" height="24.65" shape-rendering="crispEdges"/><rect fill="#121212" x="463.6" y="318.7" width="12.2" height="24.65" shape-rendering="crispEdges"/><rect fill="#121212" x="475.8" y="318.7" width="12.2" height="24.65" shape-rendering="crispEdges"/><rect fill="#121212" x="488" y="318.7" width="12.2" height="24.65" shape-rendering="crispEdges"/><rect fill="#2d3740" x="500.2" y="318.7" width="73.2" height="24.65" shape-rendering="crispEdges"/><rect fill="#2d3740" x="573.4" y="318.7" width="97.6" height="24.65" shape-rendering="crispEdges"/><rect fill="#2d3740" x="671" y="318.7" width="109.8" height="24.65" shape-rendering="crispEdges"/><rect fill="#2d3740" x="780.8" y="318.7" width="183" height="24.65" shape-rendering="crispEdges"/><rect fill="#121212" x="963.8" y="318.7" width="12.2" height="24.65" shape-rendering="crispEdges"/><rect fill="#121212" x="0" y="343.1" width="12.2" height="24.65" shape-rendering="crispEdges"/><rect fill="#121212" x="12.2" y="343.1" width="427" height="24.65" shape-rendering="crispEdges"/><rect fill="#121212" x="439.2" y="343.1" width="24.4" height="24.65" shape-rendering="crispEdges"/><rect fill="#121212" x="463.6" y="343.1" width="12.2" height="24.65" shape-rendering="crispEdges"/><rect fill="#121212" x="475.8" y="343.1" width="12.2" height="24.65" shape-rendering="crispEdges"/><rect fill="#121212" x="488" y="343.1" width="12.2" height="24.65" shape-rendering="crispEdges"/><rect fill="#121212" x="500.2" y="343.1" width="463.6" height="24.65" shape-rendering="crispEdges"/><rect fill="#121212" x="963.8" y="343.1" width="12.2" height="24.65" shape-rendering="crispEdges"/><rect fill="#121212" x="0" y="367.5" width="12.2" height="24.65" shape-rendering="crispEdges"/><rect fill="#121212" x="12.2" y="367.5" width="402.6" height="24.65" shape-rendering="crispEdges"/><rect fill="#121212" x="414.8" y="367.5" width="48.8" height="24.65" shape-rendering="crispEdges"/><rect fill="#121212" x="463.6" y="367.5" width="12.2" height="24.65" shape-rendering="crispEdges"/><rect fill="#121212" x="475.8" y="367.5" width="12.2" height="24.65" shape-rendering="crispEdges"/><rect fill="#121212" x="488" y="367.5" width="12.2" height="24.65" shape-rendering="crispEdges"/><rect fill="#121212" x="500.2" y="367.5" width="12.2" height="24.65" shape-rendering="crispEdges"/><rect fill="#121212" x="512.4" y="367.5" width="219.6" height="24.65" shape-rendering="crispEdges"/><rect fill="#121212" x="732" y="367.5" width="61" height="24.65" shape-rendering="crispEdges"/><rect fill="#121212" x="793" y="367.5" width="36.6" height="24.65" shape-rendering="crispEdges"/><rect fill="#121212" x="829.6" y="367.5" width="48.8" height="24.65" shape-rendering="crispEdges"/><rect fill="#121212" x="878.4" y="367.5" width="73.2" height="24.65" shape-rendering="crispEdges"/><rect fill="#121212" x="951.6" y="367.5" width="12.2" height="24.65" shape-rendering="crispEdges"/><rect fill="#121212" x="963.8" y="367.5" width="12.2" height="24.65" shape-rendering="crispEdges"/><rect fill="#121212" x="0" y="391.9" width="12.2" height="24.65" shape-rendering="crispEdges"/><rect fill="#121212" x="12.2" y="391.9" width="402.6" height="24.65" shape-rendering="crispEdges"/><rect fill="#121212" x="414.8" y="391.9" width="48.8" height="24.65" shape-rendering="crispEdges"/><rect fill="#121212" x="463.6" y="391.9" width="12.2" height="24.65" shape-rendering="crispEdges"/><rect fill="#121212" x="475.8" y="391.9" width="12.2" height="24.65" shape-rendering="crispEdges"/><rect fill="#121212" x="488" y="391.9" width="12.2" height="24.65" shape-rendering="crispEdges"/><rect fill="#121212" x="500.2" y="391.9" width="12.2" height="24.65" shape-rendering="crispEdges"/><rect fill="#121212" x="512.4" y="391.9" width="439.2" height="24.65" shape-rendering="crispEdges"/><rect fill="#121212" x="951.6" y="391.9" width="12.2" height="24.65" shape-rendering="crispEdges"/><rect fill="#121212" x="963.8" y="391.9" width="12.2" height="24.65" shape-rendering="crispEdges"/><rect fill="#121212" x="0" y="416.3" width="12.2" height="24.65" shape-rendering="crispEdges"/><rect fill="#121212" x="12.2" y="416.3" width="451.4" height="24.65" shape-rendering="crispEdges"/><rect fill="#121212" x="463.6" y="416.3" width="12.2" height="24.65" shape-rendering="crispEdges"/><rect fill="#121212" x="475.8" y="416.3" width="12.2" height="24.65" shape-rendering="crispEdges"/><rect fill="#121212" x="488" y="416.3" width="12.2" height="24.65" shape-rendering="crispEdges"/><rect fill="#121212" x="500.2" y="416.3" width="12.2" height="24.65" shape-rendering="crispEdges"/><rect fill="#121212" x="512.4" y="416.3" width="439.2" height="24.65" shape-rendering="crispEdges"/><rect fill="#121212" x="951.6" y="416.3" width="12.2" height="24.65" shape-rendering="crispEdges"/><rect fill="#121212" x="963.8" y="416.3" width="12.2" height="24.65" shape-rendering="crispEdges"/><rect fill="#121212" x="0" y="440.7" width="12.2" height="24.65" shape-rendering="crispEdges"/><rect fill="#121212" x="12.2" y="440.7" width="451.4" height="24.65" shape-rendering="crispEdges"/><rect fill="#121212" x="463.6" y="440.7" width="12.2" height="24.65" shape-rendering="crispEdges"/><rect fill="#121212" x="475.8" y="440.7" width="12.2" height="24.65" shape-rendering="crispEdges"/><rect fill="#121212" x="488" y="440.7" width="12.2" height="24.65" shape-rendering="crispEdges"/><rect fill="#121212" x="500.2" y="440.7" width="12.2" height="24.65" shape-rendering="crispEdges"/><rect fill="#121212" x="512.4" y="440.7" width="439.2" height="24.65" shape-rendering="crispEdges"/><rect fill="#121212" x="951.6" y="440.7" width="12.2" height="24.65" shape-rendering="crispEdges"/><rect fill="#121212" x="963.8" y="440.7" width="12.2" height="24.65" shape-rendering="crispEdges"/><rect fill="#121212" x="0" y="465.1" width="12.2" height="24.65" shape-rendering="crispEdges"/><rect fill="#121212" x="12.2" y="465.1" width="451.4" height="24.65" shape-rendering="crispEdges"/><rect fill="#121212" x="463.6" y="465.1" width="12.2" height="24.65" shape-rendering="crispEdges"/><rect fill="#121212" x="475.8" y="465.1" width="12.2" height="24.65" shape-rendering="crispEdges"/><rect fill="#121212" x="488" y="465.1" width="12.2" height="24.65" shape-rendering="crispEdges"/><rect fill="#121212" x="500.2" y="465.1" width="463.6" height="24.65" shape-rendering="crispEdges"/><rect fill="#121212" x="963.8" y="465.1" width="12.2" height="24.65" shape-rendering="crispEdges"/><rect fill="#121212" x="0" y="489.5" width="12.2" height="24.65" shape-rendering="crispEdges"/><rect fill="#121212" x="12.2" y="489.5" width="451.4" height="24.65" shape-rendering="crispEdges"/><rect fill="#121212" x="463.6" y="489.5" width="12.2" height="24.65" shape-rendering="crispEdges"/><rect fill="#343f49" x="475.8" y="489.5" width="475.8" height="24.65" shape-rendering="crispEdges"/><rect fill="#121212" x="951.6" y="489.5" width="12.2" height="24.65" shape-rendering="crispEdges"/><rect fill="#121212" x="963.8" y="489.5" width="12.2" height="24.65" shape-rendering="crispEdges"/><rect fill="#121212" x="0" y="513.9" width="12.2" height="24.65" shape-rendering="crispEdges"/><rect fill="#121212" x="12.2" y="513.9" width="451.4" height="24.65" shape-rendering="crispEdges"/><rect fill="#121212" x="463.6" y="513.9" width="12.2" height="24.65" shape-rendering="crispEdges"/><rect fill="#343f49" x="475.8" y="513.9" width="12.2" height="24.65" shape-rendering="crispEdges"/><rect fill="#343f49" x="488" y="513.9" width="195.2" height="24.65" shape-rendering="crispEdges"/><rect fill="#343f49" x="683.2" y="513.9" width="268.4" height="24.65" shape-rendering="crispEdges"/><rect fill="#121212" x="951.6" y="513.9" width="12.2" height="24.65" shape-rendering="crispEdges"/><rect fill="#121212" x="963.8" y="513.9" width="12.2" height="24.65" shape-rendering="crispEdges"/><rect fill="#121212" x="0" y="538.3" width="475.8" height="24.65" shape-rendering="crispEdges"/><rect fill="#343f49" x="475.8" y="538.3" width="475.8" height="24.65" shape-rendering="crispEdges"/><rect fill="#121212" x="951.6" y="538.3" width="24.4" height="24.65" shape-rendering="crispEdges"/><rect fill="#242f38" x="0" y="562.7" width="48.8" height="24.65" shape-rendering="crispEdges"/><rect fill="#242f38" x="48.8" y="562.7" width="61" height="24.65" shape-rendering="crispEdges"/><rect fill="#242f38" x="109.8" y="562.7" width="36.6" height="24.65" shape-rendering="crispEdges"/><rect fill="#242f38" x="146.4" y="562.7" width="170.8" height="24.65" shape-rendering="crispEdges"/><rect fill="#242f38" x="317.2" y="562.7" width="36.6" height="24.65" shape-rendering="crispEdges"/><rect fill="#242f38" x="353.8" y="562.7" width="146.4" height="24.65" shape-rendering="crispEdges"/><rect fill="#242f38" x="500.2" y="562.7" width="36.6" height="24.65" shape-rendering="crispEdges"/><rect fill="#242f38" x="536.8" y="562.7" width="170.8" height="24.65" shape-rendering="crispEdges"/><rect fill="#242f38" x="707.6" y="562.7" width="36.6" height="24.65" shape-rendering="crispEdges"/><rect fill="#242f38" x="744.2" y="562.7" width="85.4" height="24.65" shape-rendering="crispEdges"/><rect fill="#242f38" x="829.6" y="562.7" width="12.2" height="24.65" shape-rendering="crispEdges"/><rect fill="#242f38" x="841.8" y="562.7" width="24.4" height="24.65" shape-rendering="crispEdges"/><rect fill="#242f38" x="866.2" y="562.7" width="97.6" height="24.65" shape-rendering="crispEdges"/><rect fill="#242f38" x="963.8" y="562.7" width="12.2" height="24.65" shape-rendering="crispEdges"/>
    <g class="terminal-matrix">
    <text class="terminal-r2" x="12.2" y="20" textLength="12.2" clip-path="url(#terminal-line-0)">⭘</text><text class="terminal-r2" x="280.6" y="20" textLength="378.2" clip-path="url(#terminal-line-0)">MTGA&#160;Mythic&#160;TUI&#160;Session&#160;Tracker</text><text class="terminal-r1" x="976" y="20" textLength="12.2" clip-path="url(#terminal-line-0)">
</text><text class="terminal-r3" x="0" y="44.4" textLength="475.8" clip-path="url(#terminal-line-1)">┌─────────────────────────────────────┐</text><text class="terminal-r3" x="488" y="44.4" textLength="488" clip-path="url(#terminal-line-1)">┌──────────────────────────────────────┐</text><text class="terminal-r1" x="976" y="44.4" textLength="12.2" clip-path="url(#terminal-line-1)">
</text><text class="terminal-r3" x="0" y="68.8" textLength="12.2" clip-path="url(#terminal-line-2)">│</text><text class="terminal-r4" x="24.4" y="68.8" textLength="146.4" clip-path="url(#terminal-line-2)">Current&#160;Game</text><text class="terminal-r3" x="463.6" y="68.8" textLength="12.2" clip-path="url(#terminal-line-2)">│</text><text class="terminal-r3" x="488" y="68.8" textLength="12.2" clip-path="url(#terminal-line-2)">│</text><text class="terminal-r4" x="512.4" y="68.8" textLength="158.6" clip-path="url(#terminal-line-2)">Session&#160;Stats</text><text class="terminal-r3" x="963.8" y="68.8" textLength="12.2" clip-path="url(#terminal-line-2)">│</text><text class="terminal-r1" x="976" y="68.8" textLength="12.2" clip-path="url(#terminal-line-2)">
</text><text class="terminal-r3" x="0" y="93.2" textLength="12.2" clip-path="url(#terminal-line-3)">│</text><text class="terminal-r3" x="463.6" y="93.2" textLength="12.2" clip-path="url(#terminal-line-3)">│</text><text class="terminal-r3" x="488" y="93.2" textLength="12.2" clip-path="url(#terminal-line-3)">│</text><text class="terminal-r3" x="963.8" y="93.2" textLength="12.2" clip-path="url(#terminal-line-3)">│</text><text class="terminal-r1" x="976" y="93.2" textLength="12.2" clip-path="url(#terminal-line-3)">
</text><text class="terminal-r3" x="0" y="117.6" textLength="12.2" clip-path="url(#terminal-line-4)">│</text><text class="terminal-r2" x="12.2" y="117.6" textLength="85.4" clip-path="url(#terminal-line-4)">Turn:&#160;?</text><text class="terminal-r3" x="463.6" y="117.6" textLength="12.2" clip-path="url(#terminal-line-4)">│</text><text class="terminal-r3" x="488" y="117.6" textLength="12.2" clip-path="url(#terminal-line-4)">│</text><text class="terminal-r2" x="500.2" y="117.6" textLength="183" clip-path="url(#terminal-line-4)">Record:&#160;0W&#160;-&#160;0L</text><text class="terminal-r3" x="963.8" y="117.6" textLength="12.2" clip-path="url(#terminal-line-4)">│</text><text class="terminal-r1" x="976" y="117.6" textLength="12.2" clip-path="url(#terminal-line-4)">
</text><text class="terminal-r3" x="0" y="142" textLength="12.2" clip-path="url(#terminal-line-5)">│</text><text class="terminal-r2" x="12.2" y="142" textLength="280.6" clip-path="url(#terminal-line-5)">You:&#160;20&#160;♥&#160;&#160;│&#160;&#160;Opp:&#160;20&#160;♥</text><text class="terminal-r3" x="463.6" y="142" textLength="12.2" clip-path="url(#terminal-line-5)">│</text><text class="terminal-r3" x="488" y="142" textLength="12.2" clip-path="url(#terminal-line-5)">│</text><text class="terminal-r2" x="500.2" y="142" textLength="170.8" clip-path="url(#terminal-line-5)">Win&#160;Rate:&#160;0.0%</text><text class="terminal-r3" x="963.8" y="142" textLength="12.2" clip-path="url(#terminal-line-5)">│</text><text class="terminal-r1" x="976" y="142" textLength="12.2" clip-path="url(#terminal-line-5)">
</text><text class="terminal-r3" x="0" y="166.4" textLength="12.2" clip-path="url(#terminal-line-6)">│</text><text class="terminal-r2" x="12.2" y="166.4" textLength="268.4" clip-path="url(#terminal-line-6)">Cards:&#160;7&#160;&#160;&#160;│&#160;&#160;Cards:&#160;7</text><text class="terminal-r3" x="463.6" y="166.4" textLength="12.2" clip-path="url(#terminal-line-6)">│</text><text class="terminal-r3" x="488" y="166.4" textLength="12.2" clip-path="url(#terminal-line-6)">│</text><text class="terminal-r2" x="500.2" y="166.4" textLength="183" clip-path="url(#terminal-line-6)">Duration:&#160;0&#160;min</text><text class="terminal-r3" x="963.8" y="166.4" textLength="12.2" clip-path="url(#terminal-line-6)">│</text><text class="terminal-r1" x="976" y="166.4" textLength="12.2" clip-path="url(#terminal-line-6)">
</text><text class="terminal-r3" x="0" y="190.8" textLength="12.2" clip-path="url(#terminal-line-7)">│</text><text class="terminal-r3" x="463.6" y="190.8" textLength="12.2" clip-path="url(#terminal-line-7)">│</text><text class="terminal-r3" x="488" y="190.8" textLength="12.2" clip-path="url(#terminal-line-7)">│</text><text class="terminal-r2" x="500.2" y="190.8" textLength="183" clip-path="url(#terminal-line-7)">Games/Hour:&#160;0.0</text><text class="terminal-r3" x="963.8" y="190.8" textLength="12.2" clip-path="url(#terminal-line-7)">│</text><text class="terminal-r1" x="976" y="190.8" textLength="12.2" clip-path="url(#terminal-line-7)">
</text><text class="terminal-r3" x="0" y="215.2" textLength="12.2" clip-path="url(#terminal-line-8)">│</text><text class="terminal-r2" x="12.2" y="215.2" textLength="329.4" clip-path="url(#terminal-line-8)">Status:&#160;Waiting&#160;for&#160;game...</text><text class="terminal-r3" x="463.6" y="215.2" textLength="12.2" clip-path="url(#terminal-line-8)">│</text><text class="terminal-r3" x="488" y="215.2" textLength="12.2" clip-path="url(#terminal-line-8)">│</text><text class="terminal-r3" x="963.8" y="215.2" textLength="12.2" clip-path="url(#terminal-line-8)">│</text><text class="terminal-r1" x="976" y="215.2" textLength="12.2" clip-path="url(#terminal-line-8)">
</text><text class="terminal-r3" x="0" y="239.6" textLength="12.2" clip-path="url(#terminal-line-9)">│</text><text class="terminal-r4" x="24.4" y="239.6" textLength="158.6" clip-path="url(#terminal-line-9)">Rank&#160;Progress</text><text class="terminal-r3" x="463.6" y="239.6" textLength="12.2" clip-path="url(#terminal-line-9)">│</text><text class="terminal-r3" x="488" y="239.6" textLength="12.2" clip-path="url(#terminal-line-9)">│</text><text class="terminal-r2" x="500.2" y="239.6" textLength="439.2" clip-path="url(#terminal-line-9)">Starting&#160;Rank:&#160;Platinum&#160;Tier&#160;4&#160;(3/6)</text><text class="terminal-r3" x="963.8" y="239.6" textLength="12.2" clip-path="url(#terminal-line-9)">│</text><text class="terminal-r1" x="976" y="239.6" textLength="12.2" clip-path="url(#terminal-line-9)">
</text><text class="terminal-r3" x="0" y="264" textLength="12.2" clip-path="url(#terminal-line-10)">│</text><text class="terminal-r3" x="463.6" y="264" textLength="12.2" clip-path="url(#terminal-line-10)">│</text><text class="terminal-r3" x="488" y="264" textLength="12.2" clip-path="url(#terminal-line-10)">│</text><text class="terminal-r2" x="500.2" y="264" textLength="427" clip-path="url(#terminal-line-10)">Current&#160;Rank:&#160;Platinum&#160;Tier&#160;4&#160;(3/6)</text><text class="terminal-r3" x="963.8" y="264" textLength="12.2" clip-path="url(#terminal-line-10)">│</text><text class="terminal-r1" x="976" y="264" textLength="12.2" clip-path="url(#terminal-line-10)">
</text><text class="terminal-r3" x="0" y="288.4" textLength="12.2" clip-path="url(#terminal-line-11)">│</text><text class="terminal-r2" x="12.2" y="288.4" textLength="402.6" clip-path="url(#terminal-line-11)">Bronze&#160;&#160;&#160;[████][████][████][████]</text><text class="terminal-r3" x="463.6" y="288.4" textLength="12.2" clip-path="url(#terminal-line-11)">│</text><text class="terminal-r3" x="488" y="288.4" textLength="12.2" clip-path="url(#terminal-line-11)">│</text><text class="terminal-r4" x="512.4" y="288.4" textLength="146.4" clip-path="url(#terminal-line-11)">Game&#160;History</text><text class="terminal-r3" x="963.8" y="288.4" textLength="12.2" clip-path="url(#terminal-line-11)">│</text><text class="terminal-r1" x="976" y="288.4" textLength="12.2" clip-path="url(#terminal-line-11)">
</text><text class="terminal-r3" x="0" y="312.8" textLength="12.2" clip-path="url(#terminal-line-12)">│</text><text class="terminal-r2" x="12.2" y="312.8" textLength="402.6" clip-path="url(#terminal-line-12)">Silver&#160;&#160;&#160;[████][████][████][████]</text><text class="terminal-r3" x="463.6" y="312.8" textLength="12.2" clip-path="url(#terminal-line-12)">│</text><text class="terminal-r3" x="488" y="312.8" textLength="12.2" clip-path="url(#terminal-line-12)">│</text><text class="terminal-r3" x="963.8" y="312.8" textLength="12.2" clip-path="url(#terminal-line-12)">│</text><text class="terminal-r1" x="976" y="312.8" textLength="12.2" clip-path="url(#terminal-line-12)">
</text><text class="terminal-r3" x="0" y="337.2" textLength="12.2" clip-path="url(#terminal-line-13)">│</text><text class="terminal-r2" x="12.2" y="337.2" textLength="402.6" clip-path="url(#terminal-line-13)">Gold&#160;&#160;&#160;&#160;&#160;[████][████][████][████]</text><text class="terminal-r3" x="463.6" y="337.2" textLength="12.2" clip-path="url(#terminal-line-13)">│</text><text class="terminal-r3" x="488" y="337.2" textLength="12.2" clip-path="url(#terminal-line-13)">│</text><text class="terminal-r5" x="500.2" y="337.2" textLength="73.2" clip-path="url(#terminal-line-13)">&#160;Time&#160;</text><text class="terminal-r5" x="573.4" y="337.2" textLength="97.6" clip-path="url(#terminal-line-13)">&#160;Result&#160;</text><text class="terminal-r5" x="671" y="337.2" textLength="109.8" clip-path="url(#terminal-line-13)">&#160;Details&#160;</text><text class="terminal-r3" x="963.8" y="337.2" textLength="12.2" clip-path="url(#terminal-line-13)">│</text><text class="terminal-r1" x="976" y="337.2" textLength="12.2" clip-path="url(#terminal-line-13)">
</text><text class="terminal-r3" x="0" y="361.6" textLength="12.2" clip-path="url(#terminal-line-14)">│</text><text class="terminal-r2" x="12.2" y="361.6" textLength="427" clip-path="url(#terminal-line-14)">Platinum&#160;[███░░░][&#160;&#160;&#160;&#160;][&#160;&#160;&#160;&#160;][&#160;&#160;&#160;&#160;]</text><text class="terminal-r3" x="463.6" y="361.6" textLength="12.2" clip-path="url(#terminal-line-14)">│</text><text class="terminal-r3" x="488" y="361.6" textLength="12.2" clip-path="url(#terminal-line-14)">│</text><text class="terminal-r6" x="500.2" y="361.6" textLength="463.6" clip-path="url(#terminal-line-14)">┌────────────────────────────────────┐</text><text class="terminal-r3" x="963.8" y="361.6" textLength="12.2" clip-path="url(#terminal-line-14)">│</text><text class="terminal-r1" x="976" y="361.6" textLength="12.2" clip-path="url(#terminal-line-14)">
</text><text class="terminal-r3" x="0" y="386" textLength="12.2" clip-path="url(#terminal-line-15)">│</text><text class="terminal-r2" x="12.2" y="386" textLength="402.6" clip-path="url(#terminal-line-15)">Diamond&#160;&#160;[&#160;&#160;&#160;&#160;][&#160;&#160;&#160;&#160;][&#160;&#160;&#160;&#160;][&#160;&#160;&#160;&#160;]</text><text class="terminal-r3" x="463.6" y="386" textLength="12.2" clip-path="url(#terminal-line-15)">│</text><text class="terminal-r3" x="488" y="386" textLength="12.2" clip-path="url(#terminal-line-15)">│</text><text class="terminal-r6" x="500.2" y="386" textLength="12.2" clip-path="url(#terminal-line-15)">│</text><text class="terminal-r2" x="512.4" y="386" textLength="219.6" clip-path="url(#terminal-line-15)">Session&#160;Controls:&#160;</text><text class="terminal-r2" x="732" y="386" textLength="61" clip-path="url(#terminal-line-15)">tart&#160;</text><text class="terminal-r2" x="793" y="386" textLength="36.6" clip-path="url(#terminal-line-15)">nd&#160;</text><text class="terminal-r2" x="829.6" y="386" textLength="48.8" clip-path="url(#terminal-line-15)">ause</text><text class="terminal-r6" x="951.6" y="386" textLength="12.2" clip-path="url(#terminal-line-15)">│</text><text class="terminal-r3" x="963.8" y="386" textLength="12.2" clip-path="url(#terminal-line-15)">│</text><text class="terminal-r1" x="976" y="386" textLength="12.2" clip-path="url(#terminal-line-15)">
</text><text class="terminal-r3" x="0" y="410.4" textLength="12.2" clip-path="url(#terminal-line-16)">│</text><text class="terminal-r2" x="12.2" y="410.4" textLength="402.6" clip-path="url(#terminal-line-16)">Mythic&#160;&#160;&#160;[&#160;&#160;&#160;&#160;][&#160;&#160;&#160;&#160;][&#160;&#160;&#160;&#160;][&#160;&#160;&#160;&#160;]</text><text class="terminal-r3" x="463.6" y="410.4" textLength="12.2" clip-path="url(#terminal-line-16)">│</text><text class="terminal-r3" x="488" y="410.4" textLength="12.2" clip-path="url(#terminal-line-16)">│</text><text class="terminal-r6" x="500.2" y="410.4" textLength="12.2" clip-path="url(#terminal-line-16)">│</text><text class="terminal-r6" x="951.6" y="410.4" textLength="12.2" clip-path="url(#terminal-line-16)">│</text><text class="terminal-r3" x="963.8" y="410.4" textLength="12.2" clip-path="url(#terminal-line-16)">│</text><text class="terminal-r1" x="976" y="410.4" textLength="12.2" clip-path="url(#terminal-line-16)">
</text><text class="terminal-r3" x="0" y="434.8" textLength="12.2" clip-path="url(#terminal-line-17)">│</text><text class="terminal-r3" x="463.6" y="434.8" textLength="12.2" clip-path="url(#terminal-line-17)">│</text><text class="terminal-r3" x="488" y="434.8" textLength="12.2" clip-path="url(#terminal-line-17)">│</text><text class="terminal-r6" x="500.2" y="434.8" textLength="12.2" clip-path="url(#terminal-line-17)">│</text><text class="terminal-r6" x="951.6" y="434.8" textLength="12.2" clip-path="url(#terminal-line-17)">│</text><text class="terminal-r3" x="963.8" y="434.8" textLength="12.2" clip-path="url(#terminal-line-17)">│</text><text class="terminal-r1" x="976" y="434.8" textLength="12.2" clip-path="url(#terminal-line-17)">
</text><text class="terminal-r3" x="0" y="459.2" textLength="12.2" clip-path="url(#terminal-line-18)">│</text><text class="terminal-r3" x="463.6" y="459.2" textLength="12.2" clip-path="url(#terminal-line-18)">│</text><text class="terminal-r3" x="488" y="459.2" textLength="12.2" clip-path="url(#terminal-line-18)">│</text><text class="terminal-r6" x="500.2" y="459.2" textLength="12.2" clip-path="url(#terminal-line-18)">│</text><text class="terminal-r6" x="951.6" y="459.2" textLength="12.2" clip-path="url(#terminal-line-18)">│</text><text class="terminal-r3" x="963.8" y="459.2" textLength="12.2" clip-path="url(#terminal-line-18)">│</text><text class="terminal-r1" x="976" y="459.2" textLength="12.2" clip-path="url(#terminal-line-18)">
</text><text class="terminal-r3" x="0" y="483.6" textLength="12.2" clip-path="url(#terminal-line-19)">│</text><text class="terminal-r3" x="463.6" y="483.6" textLength="12.2" clip-path="url(#terminal-line-19)">│</text><text class="terminal-r3" x="488" y="483.6" textLength="12.2" clip-path="url(#terminal-line-19)">│</text><text class="terminal-r6" x="500.2" y="483.6" textLength="463.6" clip-path="url(#terminal-line-19)">└────────────────────────────────────┘</text><text class="terminal-r3" x="963.8" y="483.6" textLength="12.2" clip-path="url(#terminal-line-19)">│</text><text class="terminal-r1" x="976" y="483.6" textLength="12.2" clip-path="url(#terminal-line-19)">
</text><text class="terminal-r3" x="0" y="508" textLength="12.2" clip-path="url(#terminal-line-20)">│</text><text class="terminal-r3" x="463.6" y="508" textLength="12.2" clip-path="url(#terminal-line-20)">│</text><text class="terminal-r3" x="963.8" y="508" textLength="12.2" clip-path="url(#terminal-line-20)">│</text><text class="terminal-r1" x="976" y="508" textLength="12.2" clip-path="url(#terminal-line-20)">
</text><text class="terminal-r3" x="0" y="532.4" textLength="12.2" clip-path="url(#terminal-line-21)">│</text><text class="terminal-r3" x="463.6" y="532.4" textLength="12.2" clip-path="url(#terminal-line-21)">│</text><text class="terminal-r2" x="488" y="532.4" textLength="195.2" clip-path="url(#terminal-line-21)">Session&#160;started!</text><text class="terminal-r3" x="963.8" y="532.4" textLength="12.2" clip-path="url(#terminal-line-21)">│</text><text class="terminal-r1" x="976" y="532.4" textLength="12.2" clip-path="url(#terminal-line-21)">
</text><text class="terminal-r3" x="0" y="556.8" textLength="475.8" clip-path="url(#terminal-line-22)">└─────────────────────────────────────┘</text><text class="terminal-r3" x="951.6" y="556.8" textLength="24.4" clip-path="url(#terminal-line-22)">─┘</text><text class="terminal-r1" x="976" y="556.8" textLength="12.2" clip-path="url(#terminal-line-22)">
</text><text class="terminal-r7" x="0" y="581.2" textLength="48.8" clip-path="url(#terminal-line-23)">&#160;^q&#160;</text><text class="terminal-r2" x="48.8" y="581.2" textLength="61" clip-path="url(#terminal-line-23)">Quit&#160;</text><text class="terminal-r7" x="109.8" y="581.2" textLength="36.6" clip-path="url(#terminal-line-23)">&#160;s&#160;</text><text class="terminal-r2" x="146.4" y="581.2" textLength="170.8" clip-path="url(#terminal-line-23)">Start&#160;Session&#160;</text><text class="terminal-r7" x="317.2" y="581.2" textLength="36.6" clip-path="url(#terminal-line-23)">&#160;e&#160;</text><text class="terminal-r2" x="353.8" y="581.2" textLength="146.4" clip-path="url(#terminal-line-23)">End&#160;Session&#160;</text><text class="terminal-r7" x="500.2" y="581.2" textLength="36.6" clip-path="url(#terminal-line-23)">&#160;p&#160;</text><text class="terminal-r2" x="536.8" y="581.2" textLength="170.8" clip-path="url(#terminal-line-23)">Pause&#160;Session&#160;</text><text class="terminal-r7" x="707.6" y="581.2" textLength="36.6" clip-path="url(#terminal-line-23)">&#160;n&#160;</text><text class="terminal-r2" x="744.2" y="581.2" textLength="85.4" clip-path="url(#terminal-line-23)">Add&#160;Not</text><text class="terminal-r8" x="829.6" y="581.2" textLength="12.2" clip-path="url(#terminal-line-23)">▏</text><text class="terminal-r7" x="841.8" y="581.2" textLength="24.4" clip-path="url(#terminal-line-23)">^p</text><text class="terminal-r2" x="866.2" y="581.2" textLength="97.6" clip-path="url(#terminal-line-23)">&#160;palette</text>
    </g>
    </g>
</svg>
